<?xml version="1.0" standalone="no"?>
<!DOCTYPE svg PUBLIC "-//W3C//DTD SVG 20010904//EN"
 "http://www.w3.org/TR/2001/REC-SVG-20010904/DTD/svg10.dtd">
<svg version="1.0" xmlns="http://www.w3.org/2000/svg"
 width="1200.000000pt" height="1200.000000pt" viewBox="0 0 1200.000000 1200.000000"
 preserveAspectRatio="xMidYMid meet">
<metadata>
Created by potrace 1.14, written by Peter Selinger 2001-2017
</metadata>
<g transform="translate(0.000000,1200.000000) scale(0.100000,-0.100000)"
fill="#000000" stroke="none">
<path d="M5899 11417 c-47 -40 -213 -175 -369 -302 -156 -126 -311 -252 -345
-280 -34 -27 -165 -134 -291 -237 -126 -102 -296 -241 -379 -308 -82 -67 -167
-135 -187 -152 -20 -16 -47 -38 -60 -49 -13 -10 -27 -22 -33 -27 -8 -6 -571
-463 -615 -499 -8 -7 -141 -114 -295 -239 -154 -125 -314 -255 -355 -289 -41
-33 -124 -101 -185 -150 -60 -49 -185 -150 -276 -225 -91 -74 -185 -151 -209
-170 -56 -45 -165 -133 -210 -169 -19 -16 -114 -93 -211 -172 -97 -79 -279
-227 -405 -329 -278 -226 -315 -257 -313 -267 0 -4 20 -31 43 -60 l43 -52 68
56 c37 30 115 94 174 142 59 47 161 130 227 183 65 53 210 170 320 260 111 90
271 219 355 288 85 68 206 167 270 220 86 71 1046 851 1237 1005 13 11 245
200 516 419 270 220 559 455 643 522 258 209 247 199 499 405 84 68 205 167
269 219 65 52 123 100 129 105 48 44 18 60 276 -150 41 -33 122 -99 179 -145
57 -47 132 -107 165 -135 34 -27 104 -84 156 -126 52 -42 136 -110 185 -151
50 -40 149 -121 220 -178 72 -57 132 -107 135 -110 3 -3 39 -33 80 -66 41 -33
156 -125 255 -204 99 -80 182 -147 185 -151 4 -4 531 -433 1039 -844 67 -55
164 -134 215 -175 51 -41 200 -163 331 -269 132 -107 274 -222 315 -256 41
-34 161 -131 265 -215 105 -85 195 -159 201 -165 6 -5 38 -31 70 -57 64 -51
281 -227 433 -351 l94 -76 20 27 c11 15 33 41 49 58 l29 31 -32 24 c-18 13
-37 29 -43 34 -6 6 -45 38 -86 70 -41 33 -77 62 -80 65 -3 4 -52 44 -110 91
-58 46 -107 86 -110 89 -5 5 -195 160 -230 187 -8 6 -119 96 -246 200 -127
103 -309 251 -404 328 -95 77 -236 192 -314 255 -349 286 -449 367 -485 395
-32 25 -578 468 -646 524 -58 48 -241 197 -320 260 -49 39 -99 80 -110 89 -25
21 -527 430 -689 561 -65 53 -221 179 -346 281 -125 102 -246 201 -270 220
-24 19 -106 86 -181 148 -76 61 -144 112 -151 112 -7 -1 -52 -33 -99 -73z"/>
<path d="M5935 10933 c-71 -38 -101 -116 -71 -187 19 -46 36 -63 80 -81 46
-19 79 -19 119 1 116 60 113 222 -5 269 -48 19 -85 19 -123 -2z"/>
<path d="M4632 8739 c-44 -9 -90 -46 -112 -89 -17 -34 -20 -59 -20 -182 l0
-143 1500 0 1500 0 0 140 c0 115 -4 147 -19 181 -19 42 -56 75 -101 90 -28 9
-2702 12 -2748 3z"/>
<path d="M4500 7173 c0 -924 2 -1033 16 -1047 8 -9 18 -17 22 -17 4 -1 662 -2
1462 -3 l1455 -1 23 22 22 22 0 1028 0 1028 -1500 0 -1500 0 0 -1032z m1040
440 c63 -65 158 -162 210 -216 l94 -98 -209 -204 c-223 -217 -241 -229 -284
-186 -36 36 -17 63 155 228 90 87 164 161 164 165 0 3 -69 77 -152 163 -84 87
-158 167 -164 179 -20 37 12 82 61 85 5 1 61 -52 125 -116z m1142 -612 c4 0
15 -12 23 -25 20 -30 11 -70 -18 -83 -26 -11 -801 -10 -834 1 -13 4 -24 19
-29 38 -5 26 -2 36 18 53 23 20 33 20 428 19 223 -1 408 -2 412 -3z"/>
<path d="M7238 5373 c-2 -16 -1 -47 1 -70 l3 -43 89 0 c85 0 89 1 90 23 1 24
1 97 0 110 -1 4 -41 7 -90 7 l-90 0 -3 -27z"/>
<path d="M3529 5298 c-1 -20 -1 -111 0 -128 1 -13 29 -15 195 -14 l194 1 -59
-81 c-32 -45 -67 -92 -76 -105 -10 -13 -73 -99 -140 -190 -68 -91 -132 -177
-143 -191 -22 -28 -21 -24 -23 -105 l-1 -60 347 -3 347 -2 0 75 c0 71 -1 75
-22 76 -13 0 -117 1 -231 1 -138 -1 -207 3 -205 10 2 5 34 51 71 101 67 91
213 290 245 335 9 13 39 53 66 88 46 62 48 69 50 132 l1 67 -308 3 c-242 2
-307 0 -308 -10z"/>
<path d="M4578 5131 c-68 -22 -106 -48 -148 -101 -103 -130 -97 -396 11 -515
70 -76 169 -111 294 -102 92 6 182 45 231 99 31 34 60 86 52 93 -2 1 -39 5
-84 8 l-80 5 -27 -33 c-32 -41 -70 -52 -157 -46 -51 3 -120 106 -120 178 0 27
-22 25 250 28 118 1 220 3 226 4 15 2 7 94 -16 173 -24 80 -69 142 -131 180
-55 35 -74 39 -169 44 -54 3 -91 -1 -132 -15z m174 -106 c2 3 19 -8 36 -23 32
-26 78 -123 65 -136 -4 -3 -73 -6 -155 -6 l-148 0 5 29 c13 75 51 125 103 137
15 3 32 7 37 8 6 2 20 0 31 -5 12 -4 24 -6 26 -4z"/>
<path d="M6517 5137 c-53 -17 -106 -63 -128 -111 -10 -22 -19 -36 -20 -31 -1
20 -10 61 -20 98 l-10 37 -90 0 c-81 0 -90 -2 -85 -17 22 -55 31 -200 31 -455
l0 -238 92 0 93 0 1 173 c0 94 2 180 4 189 16 84 62 157 120 189 32 19 54 22
117 22 43 -1 87 -5 98 -8 22 -7 23 -4 22 94 0 29 -3 56 -7 59 -12 12 -181 11
-218 -1z"/>
<path d="M8058 5131 c-70 -23 -109 -50 -153 -108 -57 -75 -80 -196 -62 -330
14 -101 71 -191 151 -238 123 -72 333 -53 435 39 34 30 74 97 64 106 -4 4 -42
10 -83 13 l-76 6 -27 -34 c-32 -41 -70 -52 -157 -46 -37 2 -89 60 -106 117
-27 94 -40 89 216 90 124 1 232 2 241 3 12 1 15 11 12 54 -8 109 -50 213 -111
270 -73 70 -227 96 -344 58z m204 -123 c32 -22 67 -88 68 -125 0 -23 -1 -23
-150 -23 l-150 0 5 32 c10 53 36 99 69 119 43 27 119 25 158 -3z"/>
<path d="M5190 5123 c0 -7 116 -288 140 -338 17 -37 122 -290 136 -328 12 -35
12 -42 -7 -83 -24 -50 -70 -93 -102 -95 -12 -1 -40 -1 -63 0 l-41 1 0 -64 1
-65 44 -7 c59 -9 155 2 194 22 44 23 88 73 120 135 15 30 84 198 153 374 69
176 137 346 150 378 14 32 25 63 25 68 0 13 -195 7 -196 -6 0 -5 -4 -17 -7
-25 -31 -75 -134 -401 -152 -484 -2 -10 -6 -21 -9 -23 -4 -4 -32 78 -42 122
-1 6 -21 62 -44 125 -23 63 -56 156 -74 205 l-32 90 -97 3 c-53 1 -97 -1 -97
-5z"/>
<path d="M7049 5125 c-1 -3 -1 -16 -1 -30 0 -14 0 -40 1 -58 l1 -33 94 1 95 0
-1 -230 0 -230 -122 1 c-66 0 -125 -1 -131 -3 -5 -2 -9 -20 -8 -41 1 -20 2
-47 2 -59 l1 -23 338 0 338 0 -1 63 0 62 -90 1 c-49 1 -102 2 -116 3 l-26 1 1
268 c1 147 0 277 -3 290 -3 22 -4 22 -187 22 -101 0 -184 -2 -185 -5z"/>
<path d="M1221 4565 c-13 -19 -34 -46 -48 -59 l-24 -24 282 -229 c155 -125
343 -278 418 -339 75 -60 210 -170 301 -244 91 -73 199 -161 240 -195 250
-205 414 -338 475 -387 122 -98 318 -257 362 -294 24 -20 116 -95 205 -167 90
-72 196 -158 237 -192 40 -33 101 -82 136 -110 89 -72 200 -162 275 -223 36
-30 74 -61 85 -70 68 -55 626 -508 655 -532 19 -16 67 -55 107 -87 89 -72 445
-361 528 -428 33 -27 95 -77 136 -110 40 -33 76 -62 79 -65 3 -4 37 -31 75
-62 39 -30 112 -90 163 -131 93 -75 93 -76 115 -57 32 26 299 244 387 315 41
33 139 113 219 178 231 187 321 261 391 317 36 28 85 69 110 90 25 21 99 82
165 135 66 53 162 131 214 173 52 42 154 124 225 182 252 203 291 234 296 240
3 3 25 21 50 40 25 19 50 40 56 45 6 6 29 25 50 43 206 167 302 244 509 412
132 107 242 196 245 199 3 3 75 62 160 131 85 68 157 127 160 130 3 3 37 30
75 60 39 30 72 57 75 60 5 6 96 81 166 137 40 32 339 274 429 347 28 23 66 54
86 71 68 57 86 72 238 196 84 68 168 135 186 149 87 66 325 266 325 273 0 4
-20 31 -44 61 l-43 54 -100 -82 c-55 -44 -136 -110 -179 -145 -43 -36 -137
-112 -209 -170 -71 -58 -440 -357 -820 -665 -379 -309 -699 -568 -709 -576
-10 -8 -33 -27 -50 -41 -30 -25 -649 -528 -921 -749 -71 -58 -139 -113 -150
-122 -11 -9 -85 -70 -165 -134 -80 -65 -147 -121 -150 -124 -3 -3 -25 -21 -50
-40 -53 -41 -363 -292 -370 -300 -3 -3 -48 -39 -100 -81 -130 -105 -372 -301
-423 -343 -23 -19 -107 -88 -187 -152 -80 -65 -148 -122 -152 -128 -8 -13 -42
4 -89 45 -19 17 -131 108 -249 204 -118 96 -260 211 -315 256 -55 45 -143 116
-195 158 -52 42 -97 79 -100 82 -3 3 -54 46 -115 94 -100 81 -289 234 -690
560 -34 28 -133 108 -221 180 -87 71 -194 158 -236 192 -43 35 -113 91 -155
126 -43 35 -105 86 -139 113 -33 27 -157 127 -275 223 -118 96 -234 190 -259
210 -25 19 -51 41 -58 48 -8 8 -30 26 -50 41 -21 15 -39 30 -42 33 -4 4 -177
145 -310 252 -105 85 -832 675 -850 691 -14 11 -45 37 -70 56 -25 19 -47 37
-50 40 -4 5 -267 219 -295 241 -6 4 -20 -6 -34 -26z"/>
<path d="M5922 1325 c-52 -36 -66 -63 -67 -125 0 -43 6 -62 24 -87 46 -61 153
-79 207 -35 115 94 59 268 -86 269 -31 0 -55 -7 -78 -22z"/>
</g>
</svg>
